<?xml version="1.0" encoding="UTF-8"?>
<svg id="tracé" xmlns="http://www.w3.org/2000/svg" viewBox="0 0 189.58 197.48">
  <defs>
    <style>
      .cls-1 {
        stroke: #d5fafc;
        stroke-width: 9.03px;
      }

      .cls-1, .cls-2, .cls-3 {
        stroke-miterlimit: 10;
      }

      .cls-1, .cls-3 {
        fill: none;
      }

      .cls-2 {
        fill: #d9fafc;
        stroke: #1de2ed;
        stroke-width: .9px;
      }

      .cls-3 {
        stroke: #1de2ed;
        stroke-width: 10.23px;
      }
    </style>
  </defs>
  <g>
    <polygon class="cls-3" points="63.52 46.6 81.57 73.68 99.63 73.68 80.17 46.6 63.52 46.6"/>
    <polygon class="cls-1" points="63.52 46.6 81.57 73.68 99.63 73.68 80.17 46.6 63.52 46.6"/>
  </g>
  <g>
    <polygon class="cls-3" points="85.3 47.55 105.64 73.68 126.7 73.68 104.78 48.15 85.3 47.55"/>
    <polygon class="cls-1" points="85.3 47.55 105.64 73.68 126.7 73.68 104.78 48.15 85.3 47.55"/>
  </g>
  <g>
    <path class="cls-3" d="M111.66,49.61l21.06,24.07c.39-.08,11.63,0,12.03,0,6.02,0,3.01-3.01,3.01-3.01-6.49-7.02-12.97-14.04-19.46-21.06h-16.65Z"/>
    <path class="cls-1" d="M111.66,49.61l21.06,24.07c.39-.08,11.63,0,12.03,0,6.02,0,3.01-3.01,3.01-3.01-6.49-7.02-12.97-14.04-19.46-21.06h-16.65Z"/>
  </g>
  <rect class="cls-2" x="98.12" y="78.19" width="6.02" height="51.15"/>
  <path class="cls-2" d="M156.66,155.77c-.02-.92-1.76.19-5.57,2.66l-24.08-31.4-1.81-48.85h6.02l2.09,47.13,23.36,30.46Z"/>
  <g>
    <path class="cls-3" d="M165.82,148.89c-2.5,1.62-4.96,3.22-7.46,4.81-1.71,1.14-3.46,2.26-5.18,3.37-12.85,8.3-25.66,16.61-38.51,24.91-8.03-9.03-16.04-18.05-24.07-27.08h-33.1l-36.1-45.13v-21.27l9.03-2.8,33.1,39.11,2.68-27.08c-5.96-7.52-11.91-15.04-17.87-22.57-5.99-7.52-11.94-15.04-17.9-22.57l-9.03-18.05,9.03-18.05c5.02,3.67,10.05,7.31,15.1,10.98,3.97,6.38,7.97,12.73,11.97,19.11h49.52l4.63,3.01h18.11l21,21.06,3.01,66.19c4,4,8.03,8.03,12.03,12.03Z"/>
    <path class="cls-1" d="M165.82,148.89c-2.5,1.62-4.96,3.22-7.46,4.81-1.71,1.14-3.46,2.26-5.18,3.37-12.85,8.3-25.66,16.61-38.51,24.91-8.03-9.03-16.04-18.05-24.07-27.08h-33.1l-36.1-45.13v-21.27l9.03-2.8,33.1,39.11,2.68-27.08c-5.96-7.52-11.91-15.04-17.87-22.57-5.99-7.52-11.94-15.04-17.9-22.57l-9.03-18.05,9.03-18.05c5.02,3.67,10.05,7.31,15.1,10.98,3.97,6.38,7.97,12.73,11.97,19.11h49.52l4.63,3.01h18.11l21,21.06,3.01,66.19c4,4,8.03,8.03,12.03,12.03Z"/>
  </g>
</svg>